<?xml version="1.0" encoding="utf-8"?>
<!-- Generator: Adobe Illustrator 22.1.0, SVG Export Plug-In . SVG Version: 6.00 Build 0)  -->
<svg version="1.1" id="Layer_1" xmlns:figma="http://www.figma.com/figma/ns"
	 xmlns="http://www.w3.org/2000/svg" xmlns:xlink="http://www.w3.org/1999/xlink" x="0px" y="0px" viewBox="0 0 109 24"
	 style="enable-background:new 0 0 109 24;" xml:space="preserve">
<g>
	<g>
		<path d="M12.82,12.85c0-3.25,2.45-5.21,5.11-5.21c2.92,0,4.59,1.92,4.59,4.7c0,0.43-0.05,0.84-0.09,1.1h-8.2v-1.49h6.94l-0.44,0.5
			c0-2.16-1.04-3.24-2.73-3.24c-1.74,0-3.18,1.29-3.18,3.64c0,2.45,1.54,3.65,3.68,3.65c1.11,0,2.02-0.34,2.91-0.88l0.71,1.28
			c-1.02,0.68-2.35,1.18-3.88,1.18C15.21,18.1,12.82,16.17,12.82,12.85z"/>
		<path d="M28.55,14.36V5.01h-3.42V3.39h5.46v11.1c0,1.38,0.78,1.94,1.88,1.94c0.54,0,1.13-0.13,1.78-0.42l0.49,1.51
			c-0.95,0.38-1.62,0.58-2.75,0.58C29.75,18.1,28.55,16.77,28.55,14.36z"/>
		<path d="M37.35,21.83l0.4-1.59c0.27,0.08,0.58,0.14,0.87,0.14c1.33,0,2.11-0.79,2.56-1.9l0.26-0.68l-4.55-9.92h2.04l2.22,5.18
			c0.38,0.9,0.78,1.93,1.17,2.92h0.08c0.33-0.96,0.7-2,1.03-2.92l1.97-5.18h1.94l-4.28,10.6c-0.8,2.11-2,3.55-4.34,3.55
			C38.21,22.04,37.72,21.96,37.35,21.83z"/>
		<path d="M52.21,11.92c0-0.41,0.27-0.64,0.6-0.64c0.34,0,0.6,0.23,0.6,0.64c0,0.4-0.27,0.63-0.6,0.63
			C52.48,12.55,52.21,12.32,52.21,11.92z"/>
		<path d="M60.84,6.81h-2.69v-0.6h3.4v5.67h-0.71V6.81z M60.43,4.28c0-0.4,0.28-0.66,0.66-0.66c0.37,0,0.65,0.26,0.65,0.66
			c0,0.4-0.28,0.63-0.65,0.63C60.71,4.91,60.43,4.67,60.43,4.28z"/>
	</g>
</g>
</svg>
